<?xml version="1.0" encoding="UTF-8"?>
<svg id="Layer_1" data-name="Layer 1" xmlns="http://www.w3.org/2000/svg" viewBox="0 0 546.22 436.34">
  <defs>
    <style>
      .cls-1 {
        fill: #f2f2f2;
      }

      .cls-1, .cls-2 {
        stroke-width: 0px;
      }

      .cls-2 {
        fill: #111827;
      }
    </style>
  </defs>
  <path class="cls-2" d="M46.56,356.48c-13.16,0-26.32-.14-39.47.09-3.82.06-4.92-1.23-4.8-4.86.2-5.82.26-11.67-.1-17.48-.27-4.36,1.12-5.72,5.58-5.69,23.98.16,47.97,0,71.95-.03,3.35,0,6.66-.08,9.68-1.83,4.29-2.48,6.6-7.18,5.28-11.36-1.43-4.53-5.06-5.87-9.39-5.88-15.82-.02-31.65.02-47.47-.03-17.87-.06-30.1-7.64-35.22-21.72-5.91-16.23-1.65-33.57,11.15-44.61,7.94-6.85,17.11-10.83,27.77-10.84,18.82,0,37.64-.16,56.46.04,16.04.17,24.45,10.16,22.64,26.03-.43,3.76-2.83,3.01-5.01,3.02-23.49.07-46.97.1-70.46.12-2.34,0-4.65.06-6.89.88-4.92,1.8-7.9,6.16-7.21,10.68.68,4.49,4.25,7.31,9.83,7.33,16.99.06,34.01.59,50.96-.17,20.51-.93,37.52,17.39,34.47,40.07-2.72,20.27-19.19,35.23-40.3,36.12-13.13.55-26.31.1-39.47.1,0,0,0,.01,0,.02Z"/>
  <path class="cls-2" d="M254.01,126.76c0,11.99.11,23.99-.03,35.98-.21,18.4-12.05,35.99-29.31,42.04-23.24,8.15-45.61,6.87-65.51-9.2-10.75-8.68-15.37-20.64-16.21-34.16-1.53-24.46-.88-48.95-1.23-73.43-.05-3.53,1.13-4.6,4.57-4.5,6.99.2,14,.27,20.98-.08,4.16-.21,4.96,1.48,4.94,5.2-.07,19.65.06,39.31.19,58.96.02,3.49.17,7.01.67,10.46,2.05,13.97,12.6,21.57,28.23,20.53,13.91-.93,22.56-9.6,22.69-23.4.21-21.65.07-43.31.09-64.96q0-6.64,6.86-6.65c6.33,0,12.66.14,18.99-.06,3.28-.1,4.33,1.03,4.29,4.3-.15,12.99-.06,25.98-.06,38.98h-.16Z"/>
  <path class="cls-2" d="M409.85,163.05c0,10.91.2,20.83-.1,30.73-.11,3.68-3.56,5.48-6.38,7.19-10.77,6.55-22.76,8.39-35.06,8.1-48.14-1.11-76.74-49.93-57.27-92.11,15.75-34.11,61.38-46.8,93.15-26.79,4.08,2.57,6.11,5.65,5.82,10.62-.34,5.98-.04,11.99-.12,17.99-.07,5.35-1.81,6.33-6.35,3.25-8.39-5.7-17.33-9.83-27.48-11.21-25.99-3.53-45.6,16.87-40.24,41.93,3.66,17.11,20.59,28.15,39.96,26.29,9.56-.92,18.08-4.2,25.72-9.94,2.47-1.86,5.01-3.64,8.32-6.04Z"/>
  <path class="cls-2" d="M539.7,208.44c-11.88,0-23.62-.01-35.36.01-1.97,0-2.95-1.43-3.97-2.69-12.62-15.69-25.39-31.25-37.7-47.18-6.71-8.68-6.76-17.81-.38-26.77,11.29-15.87,23.73-30.85,36.22-45.79,1.66-1.98,3.61-2.59,6.12-2.57,9.82.09,19.64,0,29.46.05,1.26,0,3.01-.67,3.7.57.89,1.62-.88,2.68-1.79,3.74-12.75,14.88-25.58,29.71-38.32,44.6-3.13,3.66-7.86,7.23-8.52,11.37-.7,4.38,4.92,7.72,7.89,11.39,13.18,16.3,26.53,32.47,39.78,48.72,1,1.23,2.52,2.17,2.86,4.55Z"/>
  <path class="cls-2" d="M294.1,145.9c0,19.13-.11,38.27.09,57.4.04,4.17-1.19,5.51-5.34,5.28-5.97-.33-11.99-.31-17.96,0-4.1.22-5.4-1.02-5.38-5.24.16-28.29.06-56.57.05-84.86,0-10.15.11-20.3-.06-30.45-.06-3.45,1.02-4.69,4.55-4.56,6.48.24,12.98.23,19.46-.01,3.51-.13,4.54,1.06,4.51,4.53-.14,19.3-.07,38.6-.07,57.9h.14Z"/>
  <path class="cls-2" d="M426.4,145.91c0-19,.1-37.99-.08-56.99-.04-3.99.91-5.71,5.24-5.48,6.15.33,12.34.33,18.49-.02,4.25-.24,5.32,1.28,5.3,5.36-.14,31.49-.06,62.99-.05,94.48,0,6.83-.18,13.67.06,20.49.13,3.79-1.26,4.91-4.93,4.77-6.32-.25-12.68-.3-18.99.05-4.15.23-4.98-1.43-4.95-5.17.15-19.16.07-38.33.07-57.49h-.16Z"/>
  <path class="cls-1" d="M270.39,58.59c-32.81,0-65.62,0-98.42,0-1.33,0-2.66-.03-4-.02-2.71,0-3.88-.99-2.25-3.62,4.09-6.57,9.23-11.89,17.25-13.26,3.6-.61,7.28-1.03,10.92-1.03,51.96.12,103.91.4,155.87.46,9.99.01,17.75,3.67,23.4,11.83.91,1.32,2.49,2.74,1.69,4.43-.86,1.8-2.97,1.1-4.54,1.1-33.31.04-66.62.03-99.92.03v.08Z"/>
  <path class="cls-1" d="M270.92,381.43c28.13,0,56.25-.02,84.38.05,1.86,0,4.46-.99,5.41,1.25.81,1.91-.81,3.81-1.98,5.39-4.85,6.54-11.29,10.25-19.53,10.27-35.78.08-71.56.11-107.34.13-10.65,0-21.3.04-31.95-.1-8.17-.11-14.33-3.93-18.37-10.96-2.55-4.44-1.65-5.92,3.53-5.94,24.46-.07,48.93-.07,73.39-.09,4.16,0,8.32,0,12.48,0Z"/>
  <path class="cls-1" d="M270.22,20.49c-17.65,0-35.3.01-52.95-.02-1.43,0-3.39.6-4.14-.89-.92-1.83,1.02-2.94,2.06-4.12,2.7-3.06,6.16-5.15,9.89-6.61,31.09-12.14,62.04-11.87,92.76,1.39,3.25,1.4,5.99,3.59,8.42,6.14.78.82,1.95,1.62,1.46,2.93-.52,1.38-1.96,1.04-3.06,1.06-4.16.07-8.33.07-12.49.07-13.99,0-27.97,0-41.96,0v.05Z"/>
  <path class="cls-2" d="M529.53,157.47c-4.33,0-8.66-.1-12.98.04-2.6.09-3.55-.92-3.5-3.48.1-4.83.07-9.66-.04-14.48-.06-2.54.94-3.61,3.5-3.6,8.82.03,17.65,0,26.47-.08,2.33-.02,3.28,1.02,3.25,3.31-.06,4.99-.11,9.99,0,14.98.06,2.74-1.3,3.37-3.7,3.31-4.33-.1-8.66-.03-12.99-.03v.03Z"/>
  <path class="cls-2" d="M275.02,235.99c0-3.51-1.49-4.18-4.49-4.11-6.83.16-13.67.31-20.49.06-4.08-.15-5.41,1.1-5.37,5.32.21,21.49.12,42.98.07,64.48,0,1.76.75,4.29-.99,5.09-1.87.86-2.97-1.63-4.18-2.81-20.86-20.36-41.59-40.86-62.51-61.16-18.29-17.75-36.78-35.3-55.18-52.93-2.13-2.04-3.78-3.64-1.35-7.03,15.08-21.01,17.06-43.51,5.2-66.38-11.75-22.65-30.83-34.78-56.67-35.48-32.54-.88-60.76,22.56-65.19,53.16-5.75,39.69,21.81,67.39,48.7,73.42,13.2,2.95,26.2,2.04,38.99-1.79,4.64-1.39,7.59-.38,10.85,3.03,9.2,9.63,18.3,19.45,28.33,28.18,8.03,6.99,10.62,14.76,10.41,25.23-.6,29.64-.06,59.31-.17,88.96-.02,4.16,1.19,5.54,5.35,5.31,6.15-.33,12.34-.37,18.48-.02,4.49.26,6-1.03,5.92-5.74-.39-22.32-.43-44.65-.54-66.97,0-1.75-.55-3.62.9-5.88,1.99,1.94,3.88,3.7,5.69,5.55,22.74,23.2,45.51,46.37,68.15,69.66,2.42,2.49,4.82,3.59,8.27,3.44,5.82-.25,11.66-.2,17.49-.02,3.09.1,4.44-.69,4.43-4.1-.12-38.82-.15-77.64-.08-116.46ZM99.98,159.44c-1.18,3.21-2.31,4.63-5.24,1.39-5.49-6.05-12.31-8.67-20.58-7.85-4.42.44-8.93.08-14.82.08,6.12,7.62,11.34,14.03,16.48,20.52,3.42,4.32,3.32,4.48-2.25,5.33-17.99,2.75-35.27-7.98-39.5-24.54-4.62-18.07,4.05-35.97,21.03-41.69,13.9-4.68,27.34-2.9,37.94,7.86,10.9,11.07,12.21,24.54,6.96,38.89Z"/>
  <path class="cls-2" d="M337.8,335.37c0-10.33-.05-20.65.06-30.98.03-2.83-.82-5.05-2.63-7.24-15.96-19.43-31.83-38.93-47.72-58.42-1.56-1.91-3.11-3.83-4.88-6.01,3.36-1.45,6.37-.8,9.28-.84,7.83-.11,15.66.1,23.48-.12,3.36-.1,5.55,1.09,7.62,3.65,8.91,11,18.07,21.79,26.95,32.8,2.16,2.68,3.35,2.7,5.49,0,8.69-10.96,17.64-21.71,26.32-32.68,2.07-2.61,4.29-3.69,7.62-3.63,9.16.18,18.32.02,27.48.06,1.42,0,2.99-.48,4.7,1.18-5.79,7.18-11.66,14.32-17.37,21.58-12.04,15.28-24.95,29.87-36.37,45.64-1.12,10.11-.25,20.26-.46,30.39-.14,6.62-.29,6.93-7.05,7.06-5.66.11-11.33.17-16.99-.06-2.08-.08-4.48.24-5.52-2.39Z"/>
  <path class="cls-2" d="M426.9,335.37c-.06-32.31-.02-64.62-.27-96.93-.04-4.84.92-6.9,6.22-6.46,6.12.51,12.32.3,18.47.09,3.43-.12,4.63.96,4.58,4.5-.18,12.32-.08,24.65-.05,36.97,0,1.09-.4,2.32.82,3.48,1.98-.86,3.15-2.69,4.55-4.22,11.36-12.4,22.76-24.77,34.01-37.26,2.31-2.57,4.8-3.65,8.25-3.6,11.1.16,22.21.06,34.58.06-3.25,3.72-5.67,6.57-8.17,9.36-14.78,16.48-30.88,31.72-45.59,48.28-2.79,3.14-2.55,4.81.15,7.7,16.96,18.11,33.75,36.38,50.55,54.63,1.07,1.16,2.33,2.08,3.01,4.53-8.9,0-15.34.1-26.36.19-9.97-.09-16.45-2.59-22.5-10.1-9.29-11.53-19.5-22.32-29.32-33.41-.98-1.1-2.03-2.13-4.24-4.45v26.44c-7.77,3.66-16.04,2.71-24.21,2.54-1.79-.04-3.73-.15-4.49-2.34Z"/>
  <rect class="cls-1" x="291.05" y="334.62" width="175.62" height="21.97" rx="9.33" ry="9.33"/>
  <path class="cls-1" d="M270.17,415.86c17.65,0,35.3-.01,52.95.02,1.43,0,3.39-.6,4.14.89.92,1.83-1.02,2.94-2.06,4.12-2.7,3.06-6.16,5.15-9.89,6.61-31.09,12.14-62.04,11.87-92.76-1.39-3.25-1.4-5.99-3.59-8.42-6.14-.78-.82-1.95-1.62-1.46-2.93.52-1.38,1.96-1.04,3.06-1.06,4.16-.07,8.33-.07,12.49-.07,13.99,0,27.97,0,41.96,0v-.05Z"/>
</svg>